<svg width="453" height="106" viewBox="0 0 453 106" fill="none" xmlns="http://www.w3.org/2000/svg">
<path d="M25.112 52.472C25.112 48.0347 26.072 44.088 27.992 40.632C29.912 37.1333 32.5787 34.424 35.992 32.504C39.448 30.5413 43.352 29.56 47.704 29.56C53.0373 29.56 57.6027 30.968 61.4 33.784C65.1973 36.6 67.736 40.44 69.016 45.304H56.984C56.088 43.4267 54.808 41.9973 53.144 41.016C51.5227 40.0347 49.6667 39.544 47.576 39.544C44.2053 39.544 41.4747 40.7173 39.384 43.064C37.2933 45.4107 36.248 48.5467 36.248 52.472C36.248 56.3973 37.2933 59.5333 39.384 61.88C41.4747 64.2267 44.2053 65.4 47.576 65.4C49.6667 65.4 51.5227 64.9093 53.144 63.928C54.808 62.9467 56.088 61.5173 56.984 59.64H69.016C67.736 64.504 65.1973 68.344 61.4 71.16C57.6027 73.9333 53.0373 75.32 47.704 75.32C43.352 75.32 39.448 74.36 35.992 72.44C32.5787 70.4773 29.912 67.768 27.992 64.312C26.072 60.856 25.112 56.9093 25.112 52.472ZM97.67 38.904C101.766 38.904 105.051 40.2693 107.526 43C110.001 45.688 111.238 49.4 111.238 54.136V75H100.358V55.608C100.358 53.2187 99.7393 51.3627 98.502 50.04C97.2647 48.7173 95.6007 48.056 93.51 48.056C91.4193 48.056 89.7553 48.7173 88.518 50.04C87.2807 51.3627 86.662 53.2187 86.662 55.608V75H75.718V27.64H86.662V44.088C87.7713 42.5093 89.286 41.2507 91.206 40.312C93.126 39.3733 95.2807 38.904 97.67 38.904ZM152.507 56.568C152.507 57.592 152.443 58.6587 152.315 59.768H127.547C127.718 61.9867 128.422 63.6933 129.659 64.888C130.939 66.04 132.496 66.616 134.331 66.616C137.062 66.616 138.96 65.464 140.027 63.16H151.675C151.078 65.5067 149.99 67.6187 148.411 69.496C146.875 71.3733 144.934 72.8453 142.587 73.912C140.24 74.9787 137.616 75.512 134.715 75.512C131.216 75.512 128.102 74.7653 125.371 73.272C122.64 71.7787 120.507 69.6453 118.971 66.872C117.435 64.0987 116.667 60.856 116.667 57.144C116.667 53.432 117.414 50.1893 118.907 47.416C120.443 44.6427 122.576 42.5093 125.307 41.016C128.038 39.5227 131.174 38.776 134.715 38.776C138.171 38.776 141.243 39.5013 143.931 40.952C146.619 42.4027 148.71 44.472 150.203 47.16C151.739 49.848 152.507 52.984 152.507 56.568ZM141.307 53.688C141.307 51.8107 140.667 50.3173 139.387 49.208C138.107 48.0987 136.507 47.544 134.587 47.544C132.752 47.544 131.195 48.0773 129.915 49.144C128.678 50.2107 127.91 51.7253 127.611 53.688H141.307ZM172.809 75.512C169.694 75.512 166.921 74.9787 164.489 73.912C162.057 72.8453 160.137 71.3947 158.729 69.56C157.321 67.6827 156.531 65.592 156.361 63.288H167.177C167.305 64.5253 167.881 65.528 168.905 66.296C169.929 67.064 171.187 67.448 172.681 67.448C174.046 67.448 175.091 67.192 175.817 66.68C176.585 66.1253 176.969 65.4213 176.969 64.568C176.969 63.544 176.435 62.7973 175.369 62.328C174.302 61.816 172.574 61.2613 170.185 60.664C167.625 60.0667 165.491 59.448 163.785 58.808C162.078 58.1253 160.606 57.08 159.369 55.672C158.131 54.2213 157.513 52.28 157.513 49.848C157.513 47.8 158.067 45.944 159.177 44.28C160.329 42.5733 161.993 41.2293 164.169 40.248C166.387 39.2667 169.011 38.776 172.041 38.776C176.521 38.776 180.041 39.8853 182.601 42.104C185.203 44.3227 186.697 47.2667 187.081 50.936H176.969C176.798 49.6987 176.243 48.7173 175.305 47.992C174.409 47.2667 173.214 46.904 171.721 46.904C170.441 46.904 169.459 47.16 168.777 47.672C168.094 48.1413 167.753 48.8027 167.753 49.656C167.753 50.68 168.286 51.448 169.353 51.96C170.462 52.472 172.169 52.984 174.473 53.496C177.118 54.1787 179.273 54.8613 180.937 55.544C182.601 56.184 184.051 57.2507 185.289 58.744C186.569 60.1947 187.23 62.1573 187.273 64.632C187.273 66.7227 186.675 68.6 185.481 70.264C184.329 71.8853 182.643 73.1653 180.425 74.104C178.249 75.0427 175.71 75.512 172.809 75.512ZM208.496 75.512C205.381 75.512 202.608 74.9787 200.176 73.912C197.744 72.8453 195.824 71.3947 194.416 69.56C193.008 67.6827 192.219 65.592 192.048 63.288H202.864C202.992 64.5253 203.568 65.528 204.592 66.296C205.616 67.064 206.875 67.448 208.368 67.448C209.733 67.448 210.779 67.192 211.504 66.68C212.272 66.1253 212.656 65.4213 212.656 64.568C212.656 63.544 212.123 62.7973 211.056 62.328C209.989 61.816 208.261 61.2613 205.872 60.664C203.312 60.0667 201.179 59.448 199.472 58.808C197.765 58.1253 196.293 57.08 195.056 55.672C193.819 54.2213 193.2 52.28 193.2 49.848C193.2 47.8 193.755 45.944 194.864 44.28C196.016 42.5733 197.68 41.2293 199.856 40.248C202.075 39.2667 204.699 38.776 207.728 38.776C212.208 38.776 215.728 39.8853 218.288 42.104C220.891 44.3227 222.384 47.2667 222.768 50.936H212.656C212.485 49.6987 211.931 48.7173 210.992 47.992C210.096 47.2667 208.901 46.904 207.408 46.904C206.128 46.904 205.147 47.16 204.464 47.672C203.781 48.1413 203.44 48.8027 203.44 49.656C203.44 50.68 203.973 51.448 205.04 51.96C206.149 52.472 207.856 52.984 210.16 53.496C212.805 54.1787 214.96 54.8613 216.624 55.544C218.288 56.184 219.739 57.2507 220.976 58.744C222.256 60.1947 222.917 62.1573 222.96 64.632C222.96 66.7227 222.363 68.6 221.168 70.264C220.016 71.8853 218.331 73.1653 216.112 74.104C213.936 75.0427 211.397 75.512 208.496 75.512ZM227.48 57.08C227.48 53.4107 228.162 50.1893 229.528 47.416C230.936 44.6427 232.834 42.5093 235.224 41.016C237.613 39.5227 240.28 38.776 243.224 38.776C245.741 38.776 247.938 39.288 249.816 40.312C251.736 41.336 253.208 42.68 254.232 44.344V39.288H265.176V75H254.232V69.944C253.165 71.608 251.672 72.952 249.752 73.976C247.874 75 245.677 75.512 243.16 75.512C240.258 75.512 237.613 74.7653 235.224 73.272C232.834 71.736 230.936 69.5813 229.528 66.808C228.162 63.992 227.48 60.7493 227.48 57.08ZM254.232 57.144C254.232 54.4133 253.464 52.2587 251.928 50.68C250.434 49.1013 248.6 48.312 246.424 48.312C244.248 48.312 242.392 49.1013 240.856 50.68C239.362 52.216 238.616 54.3493 238.616 57.08C238.616 59.8107 239.362 61.9867 240.856 63.608C242.392 65.1867 244.248 65.976 246.424 65.976C248.6 65.976 250.434 65.1867 251.928 63.608C253.464 62.0293 254.232 59.8747 254.232 57.144ZM284.037 44.344C285.061 42.68 286.533 41.336 288.453 40.312C290.373 39.288 292.57 38.776 295.045 38.776C297.989 38.776 300.656 39.5227 303.045 41.016C305.434 42.5093 307.312 44.6427 308.677 47.416C310.085 50.1893 310.789 53.4107 310.789 57.08C310.789 60.7493 310.085 63.992 308.677 66.808C307.312 69.5813 305.434 71.736 303.045 73.272C300.656 74.7653 297.989 75.512 295.045 75.512C292.528 75.512 290.33 75.0213 288.453 74.04C286.576 73.016 285.104 71.672 284.037 70.008V75H273.093V27.64H284.037V44.344ZM299.653 57.08C299.653 54.3493 298.885 52.216 297.349 50.68C295.856 49.1013 294 48.312 291.781 48.312C289.605 48.312 287.749 49.1013 286.213 50.68C284.72 52.2587 283.973 54.4133 283.973 57.144C283.973 59.8747 284.72 62.0293 286.213 63.608C287.749 65.1867 289.605 65.976 291.781 65.976C293.957 65.976 295.813 65.1867 297.349 63.608C298.885 61.9867 299.653 59.8107 299.653 57.08ZM327.475 27.64V75H316.531V27.64H327.475ZM369.069 56.568C369.069 57.592 369.006 58.6587 368.878 59.768H344.11C344.28 61.9867 344.984 63.6933 346.222 64.888C347.502 66.04 349.059 66.616 350.894 66.616C353.624 66.616 355.523 65.464 356.59 63.16H368.238C367.64 65.5067 366.552 67.6187 364.974 69.496C363.438 71.3733 361.496 72.8453 359.15 73.912C356.803 74.9787 354.179 75.512 351.278 75.512C347.779 75.512 344.664 74.7653 341.934 73.272C339.203 71.7787 337.07 69.6453 335.534 66.872C333.998 64.0987 333.23 60.856 333.23 57.144C333.23 53.432 333.976 50.1893 335.47 47.416C337.006 44.6427 339.139 42.5093 341.87 41.016C344.6 39.5227 347.736 38.776 351.278 38.776C354.734 38.776 357.806 39.5013 360.494 40.952C363.182 42.4027 365.272 44.472 366.766 47.16C368.302 49.848 369.069 52.984 369.069 56.568ZM357.87 53.688C357.87 51.8107 357.23 50.3173 355.95 49.208C354.67 48.0987 353.07 47.544 351.15 47.544C349.315 47.544 347.758 48.0773 346.478 49.144C345.24 50.2107 344.472 51.7253 344.174 53.688H357.87ZM385.787 27.64V75H374.843V27.64H385.787ZM415.542 75L404.662 60.024V75H393.718V27.64H404.662V53.816L415.478 39.288H428.982L414.134 57.208L429.11 75H415.542Z" fill="url(#paint0_linear_5_27)"/>
<defs>
<linearGradient id="paint0_linear_5_27" x1="23" y1="53" x2="430" y2="53" gradientUnits="userSpaceOnUse">
<stop offset="0.405" stop-color="#0095F8"/>
<stop offset="0.51" stop-color="#0069AC"/>
</linearGradient>
</defs>
</svg>
